{
	"asset":{
		"version":"2.0",
		"generator":"Created using the official Cinema 4D glTF Exporter 1.000x284978"
	},
	"scenes":[{
		"nodes":[0]
	}],
	"textures":[{
		"sampler":0,
		"source":0
	}],
	"nodes":[{
		"name":"Default",
		"mesh":0
	}],
	"meshes":[{
		"name":"Default",
		"primitives":[{
			"attributes":{
				"POSITION":1,
				"NORMAL":2,
				"TEXCOORD_0":3
			},
			"indices":0,
			"material":0
		}]
	}],
	"accessors":[{
		"bufferView":0,
		"type":"SCALAR",
		"componentType":5123,
		"count":22188,
		"byteOffset":0,
		"min":[0],
		"max":[5947]
	},
	{
		"bufferView":1,
		"type":"VEC3",
		"componentType":5126,
		"count":5948,
		"byteOffset":0,
		"min":[-0.5192779898643494,
		-4.8394598960876469,
		-5.92779016494751],
		"max":[1.7727700471878052,
		2.2367899417877199,
		0.0988650992512703]
	},
	{
		"bufferView":1,
		"type":"VEC3",
		"componentType":5126,
		"count":5948,
		"byteOffset":12,
		"min":[-1.0,
		-0.9999402165412903,
		-0.9995072484016419],
		"max":[0.9999522566795349,
		0.9908019304275513,
		0.9970463514328003]
	},
	{
		"bufferView":1,
		"type":"VEC2",
		"componentType":5126,
		"count":5948,
		"byteOffset":24,
		"min":[0.00040160599746741354,
		0.0004409999819472432],
		"max":[0.9995980262756348,
		0.9995590448379517]
	}],
	"bufferViews":[{
		"buffer":0,
		"byteOffset":0,
		"byteLength":44376,
		"target":34963
	},
	{
		"buffer":0,
		"byteOffset":44376,
		"byteLength":190336,
		"target":34962,
		"byteStride":32
	}],
	"buffers":[{
		"uri":"data:application/octet-stream;base64,",
		"byteLength":234712
	}],
	"images":[{
		"uri":"data:image/png;base64,"
	}],
	"samplers":[{
		"magFilter":9729,
		"minFilter":9729,
		"wrapS":10497,
		"wrapT":10497
	}],
	"materials":[{
		"pbrMetallicRoughness":{
			"baseColorTexture":{
				"index":0
			},
			"baseColorFactor":[1.0,
			1.0,
			1.0,
			1.0],
			"metallicFactor":0.0,
			"roughnessFactor":0.5
		},
		"emissiveFactor":[0.0,
		0.0,
		0.0],
		"alphaMode":"OPAQUE",
		"doubleSided":false,
		"name":"material_0"
	}]
}